<svg width="27" height="23" viewBox="0 0 27 23" fill="none" xmlns="http://www.w3.org/2000/svg">
<g clip-path="url(#clip0)">
<path d="M25.3125 1.56055H0.9375C0.418945 1.56055 0 1.97949 0 2.49805V21.248C0 21.7666 0.418945 22.1855 0.9375 22.1855H25.3125C25.8311 22.1855 26.25 21.7666 26.25 21.248V2.49805C26.25 1.97949 25.8311 1.56055 25.3125 1.56055ZM24.1406 4.80664V20.0762H2.10938V4.80664L1.30078 4.17676L2.45215 2.69727L3.70605 3.67285H22.5469L23.8008 2.69727L24.9521 4.17676L24.1406 4.80664ZM22.5469 3.66992L13.125 10.9941L3.70312 3.66992L2.44922 2.69434L1.29785 4.17383L2.10645 4.80371L12.1143 12.585C12.4021 12.8086 12.7561 12.9299 13.1206 12.9299C13.4851 12.9299 13.8391 12.8086 14.127 12.585L24.1406 4.80664L24.9492 4.17676L23.7979 2.69727L22.5469 3.66992Z" fill="#2091F9"/>
</g>
<defs>
<clipPath id="clip0">
<rect width="27" height="22" fill="white" transform="translate(0 0.873047)"/>
</clipPath>
</defs>
</svg>
