<svg width="26" height="33" viewBox="0 0 26 33" fill="none" xmlns="http://www.w3.org/2000/svg">
<g clip-path="url(#clip0)">
<path d="M12.9998 20.0397C16.4927 20.0397 19.3332 17.1992 19.3332 13.7064C19.3332 10.2135 16.4927 7.37305 12.9998 7.37305C9.507 7.37305 6.6665 10.2135 6.6665 13.7064C6.6665 17.1992 9.507 20.0397 12.9998 20.0397ZM12.9998 10.5397C14.7463 10.5397 16.1665 11.96 16.1665 13.7064C16.1665 15.4528 14.7463 16.873 12.9998 16.873C11.2534 16.873 9.83317 15.4528 9.83317 13.7064C9.83317 11.96 11.2534 10.5397 12.9998 10.5397Z" fill="#2091F9"/>
<path d="M11.7487 32.412C12.0167 32.6033 12.3378 32.7062 12.6671 32.7062C12.9963 32.7062 13.3174 32.6033 13.5854 32.412C14.0667 32.0715 25.3796 23.9031 25.3337 13.7065C25.3337 6.72238 19.6511 1.03979 12.6671 1.03979C5.68297 1.03979 0.000383534 6.72238 0.000383534 13.6985C-0.0455331 23.9031 11.2674 32.0715 11.7487 32.412ZM12.6671 4.20646C17.9063 4.20646 22.167 8.46721 22.167 13.7144C22.2003 20.7412 15.2194 27.0508 12.6671 29.1202C10.1163 27.0492 3.1338 20.738 3.16705 13.7065C3.16705 8.46721 7.4278 4.20646 12.6671 4.20646Z" fill="#2091F9"/>
</g>
<defs>
<clipPath id="clip0">
<rect width="26" height="32" fill="white" transform="translate(0 0.873047)"/>
</clipPath>
</defs>
</svg>
