<svg width="53" height="65" viewBox="0 0 53 65" fill="none" xmlns="http://www.w3.org/2000/svg">
<g clip-path="url(#clip0)">
<path d="M43.6192 1.77881H13.1849C11.0779 1.77881 9.36694 3.50334 9.36694 5.62463V45.9449C9.36694 48.0662 11.0779 49.7887 13.1849 49.7887H43.6172C45.7223 49.7887 47.4371 48.0662 47.4371 45.9449V5.62463C47.4391 3.50334 45.7242 1.77881 43.6192 1.77881ZM44.8443 45.9449C44.8443 46.6284 44.2922 47.1803 43.6172 47.1803H13.1849C12.5099 47.1803 11.9597 46.6284 11.9597 45.9449V5.62463C11.9597 4.94307 12.5099 4.38918 13.1849 4.38918H43.6172C44.2922 4.38918 44.8443 4.94307 44.8443 5.62463V45.9449ZM16.1698 7.91877H40.6323V11.5073H16.1698V7.91877ZM31.3986 19.7509H16.1698V17.5176H31.3986V19.7509ZM31.3986 24.7496H16.1698V22.5144H31.3986V24.7496ZM31.3986 29.5834H16.1698V27.3502H31.3986V29.5834ZM31.3986 34.4506H16.1698V32.2174H31.3986V34.4506ZM16.1698 36.6073H40.6323V38.8405H16.1698V36.6073ZM33.1798 34.4506H40.6323V17.5353H33.1798C33.1818 17.5353 33.1818 34.4506 33.1798 34.4506ZM34.4791 18.8395H39.3369V33.1464H34.4791V18.8395Z" fill="#2091F9"/>
</g>
<path d="M43.4816 52.3365C44.1197 51.263 45.0578 50.713 46.3019 50.6983C47.546 50.6836 48.1738 50.0457 48.1942 48.7902C48.2117 47.5407 48.7521 46.5961 49.8185 45.9567C50.8877 45.3143 51.1193 44.4505 50.5104 43.3563C49.9044 42.2652 49.9044 41.174 50.5104 40.0799C51.1193 38.9887 50.8892 38.1263 49.8185 37.484C48.7521 36.8401 48.2102 35.8971 48.1942 34.6416C48.1738 33.392 47.546 32.7541 46.3019 32.7394C45.0578 32.7218 44.1197 32.1747 43.4816 31.1012C42.8436 30.0247 41.9856 29.7915 40.9017 30.4045C39.8179 31.0146 38.7312 31.0146 37.6474 30.4045C36.5621 29.7929 35.7041 30.0247 35.066 31.1012C34.4294 32.1762 33.4898 32.7233 32.2472 32.7394C31.0061 32.7541 30.3753 33.392 30.3578 34.6416C30.3374 35.8971 29.797 36.8386 28.7306 37.484C27.6614 38.1263 27.4269 38.9873 28.0387 40.0799C28.6476 41.174 28.6476 42.2652 28.0387 43.3563C27.4269 44.4505 27.6599 45.3158 28.7306 45.9567C29.797 46.5961 30.3389 47.5407 30.3578 48.7902C30.3753 50.0442 31.0061 50.6836 32.2472 50.6983C33.4913 50.713 34.4294 51.263 35.0675 52.3365C35.7055 53.4131 36.5636 53.6462 37.6474 53.0303C38.7312 52.426 39.8179 52.426 40.9017 53.0303C41.9856 53.6448 42.845 53.4131 43.4816 52.3365ZM39.2775 48.5717C35.5162 48.5717 32.4686 45.5035 32.4686 41.7167C32.4686 37.9327 35.5162 34.8645 39.2775 34.8645C43.0359 34.8645 46.0834 37.9327 46.0834 41.7167C46.0834 45.5035 43.0359 48.5717 39.2775 48.5717Z" fill="#2091F9"/>
<path d="M32.1379 51.7029C30.8298 51.7029 30.6549 51.0898 30.6549 51.0898L25.5461 61.1993L29.6425 60.7359L31.9077 64.1678C31.9077 64.1678 36.6276 54.2534 36.6276 54.3194C34.1817 54.2578 35.1548 51.7689 32.1379 51.7029Z" fill="#2091F9"/>
<path d="M47.827 51.4858C44.0949 51.8789 44.8538 52.8117 44.0002 53.5362C43.0183 54.5907 41.7917 54.3839 41.7917 54.3839L47.5532 64.3643L48.9706 60.6684L52.9999 61.1979L47.827 51.4858Z" fill="#2091F9"/>
<path d="M40.6993 40.2043L39.2746 37.3004L37.8485 40.2043L34.6597 40.6737L36.9642 42.9367L36.4209 46.1369L39.2746 44.6277L42.1284 46.1369L41.585 42.9367L43.8896 40.6737L40.6993 40.2043Z" fill="#2091F9"/>
<defs>
<clipPath id="clip0">
<rect width="47.6862" height="48.0099" fill="white" transform="translate(0 0.922363)"/>
</clipPath>
</defs>
</svg>
