<svg width="59" height="61" viewBox="0 0 59 61" fill="none" xmlns="http://www.w3.org/2000/svg">
<path d="M56.3182 22.3756H52.2618C51.9779 21.5679 51.6511 20.7748 51.2826 20.0003L54.1522 17.1112C55.1995 16.0568 55.1995 14.3473 54.1523 13.2929L46.5671 5.65595C46.0642 5.14961 45.3819 4.86503 44.6707 4.86503C43.9595 4.86503 43.2774 5.14943 42.7745 5.65595L39.9047 8.54498C39.1352 8.17399 38.3479 7.84513 37.5455 7.55929V3.47541C37.5455 1.98428 36.3447 0.775391 34.8636 0.775391H24.1364C22.6553 0.775391 21.4545 1.98428 21.4545 3.47541V7.55929C20.6521 7.84513 19.8646 8.17417 19.0954 8.54498L16.2257 5.65595C15.1786 4.6015 13.4804 4.6015 12.4331 5.65595L4.84765 13.2929C3.80032 14.3473 3.80032 16.0568 4.84765 17.1112L7.7172 20.0005C7.3489 20.775 7.02225 21.5677 6.73834 22.3756H2.68182C1.20074 22.3756 0 23.5845 0 25.0756V35.8757C0 37.3668 1.20074 38.5757 2.68182 38.5757H6.73834C7.02225 39.3834 7.34908 40.1765 7.7172 40.9508L4.84765 43.84C4.34472 44.3464 4.06206 45.0331 4.06206 45.7491C4.06206 46.4654 4.34455 47.1521 4.84765 47.6584L12.4333 55.2952C13.4806 56.3494 15.1786 56.3494 16.2257 55.2952L19.0956 52.4063C19.8651 52.7771 20.6523 53.1062 21.4545 53.392V57.4759C21.4545 58.967 22.6553 60.1759 24.1364 60.1759H34.8636C36.3447 60.1759 37.5455 58.967 37.5455 57.4759V53.3918C38.3479 53.106 39.1354 52.7771 39.9047 52.4061L42.7746 55.2952C43.8218 56.3494 45.5197 56.3496 46.5671 55.295L54.1523 47.6582C55.1997 46.6038 55.1997 44.8943 54.1523 43.8399L51.2828 40.9508C51.6513 40.1763 51.9781 39.3834 52.262 38.5755H56.3182C57.7993 38.5755 59 37.3666 59 35.8755V25.0754C59 23.5845 57.7993 22.3756 56.3182 22.3756ZM53.6364 33.1757H50.2785C49.0546 33.1757 47.9861 34.0098 47.6813 35.2032C47.2459 36.9076 46.5705 38.5464 45.674 40.0737C45.0515 41.1344 45.2212 42.4852 46.0867 43.3564L48.4635 45.7493L44.6709 49.5677L42.2939 47.1749C41.4287 46.3039 40.0873 46.1329 39.0339 46.7595C37.5168 47.6616 35.8888 48.3417 34.1953 48.7807C33.0101 49.0876 32.1818 50.1633 32.1818 51.3954V54.7758H26.8182V51.3954C26.8182 50.1635 25.9899 49.0878 24.8048 48.7807C23.1116 48.3419 21.4839 47.6618 19.9665 46.7595C18.9127 46.1327 17.5716 46.3037 16.7065 47.1749L14.3295 49.5677L10.5365 45.7491L12.9133 43.3562C13.7788 42.485 13.9485 41.1344 13.326 40.0737C12.4299 38.5467 11.7546 36.9078 11.3185 35.2027C11.0137 34.0096 9.94508 33.1757 8.72145 33.1757H5.36364V27.7756H8.72145C9.94508 27.7756 11.0135 26.9417 11.3185 25.7486C11.7544 24.0433 12.4299 22.4044 13.326 20.8774C13.9485 19.8167 13.7788 18.4661 12.9133 17.5949L10.5367 15.202L14.3295 11.3836L16.7063 13.7764C17.5716 14.6476 18.9133 14.8186 19.9667 14.1918C21.4835 13.2895 23.1116 12.6096 24.805 12.1706C25.9899 11.8637 26.8182 10.788 26.8182 9.55586V6.17544H32.1818V9.55586C32.1818 10.7878 33.0101 11.8635 34.1951 12.1706C35.889 12.6096 37.5168 13.2895 39.0337 14.1918C40.0875 14.8184 41.4287 14.6476 42.2941 13.7764L44.6709 11.3836L48.4635 15.202L46.0867 17.5949C45.2212 18.4661 45.0515 19.8169 45.674 20.8776C46.5705 22.4047 47.2458 24.0435 47.6813 25.7481C47.9861 26.9413 49.0547 27.7754 50.2785 27.7754H53.6364V33.1757Z" fill="#2091F9"/>
<path d="M33.3249 24.6065L27.1756 30.7973L25.4961 29.1066C24.4489 28.0521 22.7508 28.0521 21.7035 29.1066C20.6561 30.161 20.6561 31.8705 21.7035 32.925L25.2792 36.525C25.8029 37.0522 26.4893 37.3157 27.1756 37.3157C27.862 37.3157 28.5484 37.0522 29.0719 36.5248L37.1173 28.4247C38.1646 27.3703 38.1646 25.6608 37.1173 24.6064C36.0701 23.5519 34.372 23.5519 33.3249 24.6065Z" fill="#2091F9"/>
</svg>
