<svg width="54" height="56" viewBox="0 0 54 56" fill="none" xmlns="http://www.w3.org/2000/svg">
<g clip-path="url(#clip0)">
<path d="M28.9221 12.6268L28.817 12.7371L16.9713 25.1044H0V51.7306H54V12.6268H28.9221ZM19.2541 46.1603H6.86065V42.8181H19.2541V46.1603ZM19.2541 39.1417H6.86065V35.7995H19.2541V39.1417ZM47.4713 46.1603H30.7623V29.3379H34.1185V24.2131C34.1185 21.4491 36.3526 19.1998 39.098 19.1998C41.8445 19.1998 44.0775 21.4491 44.0775 24.2131V29.3379H47.4713V46.1603Z" fill="#2091F9"/>
<path d="M21.216 15.8575L15.5615 21.7621H8.96313V15.8575H21.216Z" fill="#2091F9"/>
<path d="M27.5123 9.28451L24.4173 12.5153H5.64344V21.7621H0V4.49402H23.8352L27.4869 9.28451H27.5123Z" fill="#2091F9"/>
<path d="M40.7579 24.213V29.3377H37.4382V24.213C37.4382 23.2916 38.1829 22.5419 39.0981 22.5419C40.0132 22.5419 40.7579 23.2916 40.7579 24.213Z" fill="#2091F9"/>
<path d="M34.082 32.6799V42.818H44.1517V32.6799H34.082ZM40.7579 39.3922H37.4382V36.05H40.7579V39.3922Z" fill="#2091F9"/>
</g>
<defs>
<clipPath id="clip0">
<rect width="54" height="54.3666" fill="white" transform="translate(0 0.928955)"/>
</clipPath>
</defs>
</svg>
