<svg width="60" height="61" viewBox="0 0 60 61" fill="none" xmlns="http://www.w3.org/2000/svg">
<path d="M27.2246 41.064C27.6752 40.6104 27.6752 39.8762 27.2246 39.4226C26.7736 38.9703 26.043 38.9703 25.5915 39.4226C25.1414 39.8762 25.1414 40.6104 25.5915 41.064C26.043 41.5163 26.7736 41.5163 27.2246 41.064Z" fill="#2091F9"/>
<path d="M21.7583 13.5336C21.7583 20.5685 27.4542 26.2923 34.4553 26.2923C41.4564 26.2923 47.1523 20.5685 47.1523 13.5336C47.1523 6.49873 41.4564 0.775391 34.4553 0.775391C27.4542 0.775391 21.7583 6.49873 21.7583 13.5336ZM44.844 13.5336C44.844 19.2896 40.1836 23.9724 34.4553 23.9724C28.7269 23.9724 24.0666 19.2896 24.0666 13.5336C24.0666 7.77808 28.7269 3.09527 34.4553 3.09527C40.1836 3.09527 44.844 7.77808 44.844 13.5336Z" fill="#2091F9"/>
<path d="M13.3532 59.8329C13.8006 60.286 14.529 60.291 14.9823 59.8424L20.5785 54.3026C21.5292 53.3472 21.8183 51.9328 21.4002 50.7033L22.604 49.5368C23.2521 48.9078 24.1054 48.5611 25.0075 48.5611H40.3524C43.0747 48.5611 45.6477 47.5106 47.5984 45.6031C47.6786 45.5247 46.989 46.3409 58.0669 33.0371C59.7099 31.0838 59.4641 28.1508 57.5184 26.498C55.5849 24.8606 52.6885 25.0958 51.041 27.0155L44.2297 34.05C43.3696 32.9863 42.0581 32.3233 40.641 32.3233H27.7695C25.9379 31.5533 23.9945 31.1636 21.9893 31.1636C16.431 31.1636 11.5776 33.7432 8.97297 38.5796C7.87565 38.3707 6.71834 38.7042 5.88577 39.5408L0.394658 45.0747C-0.0536514 45.5265 -0.0545534 46.2575 0.392854 46.7107L13.3532 59.8329ZM21.9888 33.483C23.7568 33.483 25.4661 33.8406 27.0704 34.5458C27.2165 34.6101 27.3739 34.6432 27.5331 34.6432H40.641C41.8926 34.6432 42.9497 35.6688 42.9497 36.9626C42.9497 38.242 41.9142 39.2825 40.641 39.2825H31.2234C30.5861 39.2825 30.0692 39.8018 30.0692 40.4422C30.0692 41.083 30.5861 41.6019 31.2234 41.6019H40.641C43.187 41.6019 45.258 39.5209 45.258 36.9626C45.258 36.7587 45.2436 36.5566 45.2175 36.3562C51.8063 29.5507 52.7354 28.5945 52.7751 28.5469C53.5978 27.5712 55.0582 27.4474 56.0296 28.2704C57.002 29.0966 57.1252 30.5631 56.3002 31.5443L45.9472 43.9807C44.4354 45.4391 42.4505 46.2417 40.3524 46.2417H25.0075C23.5038 46.2417 22.0804 46.8195 21.0006 47.8677L20.0197 48.819L10.9768 39.733C13.0903 35.749 17.0561 33.483 21.9888 33.483ZM7.51935 41.18C7.9 40.7975 8.48452 40.7286 8.94861 41.0169C9.14841 41.1392 8.57472 40.6144 18.9463 51.0215C19.4077 51.4851 19.3828 52.2238 18.9526 52.6561L14.1817 57.3788L2.84006 45.8954L7.51935 41.18Z" fill="#2091F9"/>
<path d="M33.0703 6.57484V7.93396C31.7267 8.41252 30.7615 9.70185 30.7615 11.2141C30.7615 13.1325 32.3148 14.6937 34.2244 14.6937C34.8608 14.6937 35.3786 15.214 35.3786 15.8535C35.3786 16.4929 34.8608 17.0132 34.2244 17.0132C33.7315 17.0132 33.1988 16.7018 32.7257 16.1358C32.3153 15.6454 31.5873 15.5824 31.0993 15.9944C30.6113 16.4068 30.5482 17.1382 30.9586 17.6286C31.5756 18.3659 32.3013 18.8799 33.0703 19.1391V20.4928C33.0703 21.1336 33.5871 21.6525 34.2244 21.6525C34.8617 21.6525 35.3786 21.1336 35.3786 20.4928V19.1336C36.7221 18.6546 37.6873 17.3653 37.6873 15.8535C37.6873 13.9346 36.134 12.3739 34.2244 12.3739C33.588 12.3739 33.0703 11.8536 33.0703 11.2141C33.0703 10.5747 33.588 10.054 34.2244 10.054C34.6335 10.054 35.0651 10.2638 35.4728 10.6603C35.9311 11.1058 36.6617 11.0936 37.1051 10.6336C37.5484 10.1732 37.5362 9.439 37.0784 8.99351C36.4926 8.42385 35.9063 8.10164 35.3786 7.9258V6.57484C35.3786 5.93403 34.8617 5.41467 34.2244 5.41467C33.5871 5.41467 33.0703 5.93403 33.0703 6.57484Z" fill="#2091F9"/>
</svg>
