<svg width="54" height="56" viewBox="0 0 54 56" fill="none" xmlns="http://www.w3.org/2000/svg">
<g clip-path="url(#clip0)">
<path d="M27.0007 27.5178C33.0045 27.5178 37.8721 21.5657 37.8721 14.2234C37.8721 6.881 36.274 0.928955 27.0007 0.928955C17.7273 0.928955 16.1289 6.881 16.1289 14.2234C16.1289 21.5657 20.9965 27.5178 27.0007 27.5178Z" fill="#2091F9"/>
<path d="M6.46649 47.8152C6.46464 47.3705 6.46279 47.6899 6.46649 47.8152V47.8152Z" fill="#2091F9"/>
<path d="M47.5337 48.1657C47.5395 48.0433 47.5357 47.3166 47.5337 48.1657V48.1657Z" fill="#2091F9"/>
<path d="M47.5105 47.2799C47.3091 34.4894 45.6499 30.8448 32.9533 28.5378C32.9533 28.5378 31.1661 30.8307 27.0003 30.8307C22.8346 30.8307 21.0471 28.5378 21.0471 28.5378C8.48899 30.8197 6.7289 34.4102 6.49747 46.8643C6.4785 47.8813 6.4697 47.9347 6.46631 47.8167C6.46708 48.0379 6.46801 48.447 6.46801 49.1605C6.46801 49.1605 9.49077 55.2955 27.0003 55.2955C44.5096 55.2955 47.5327 49.1605 47.5327 49.1605C47.5327 48.7021 47.533 48.3834 47.5335 48.1665C47.5301 48.2395 47.5233 48.098 47.5105 47.2799Z" fill="#2091F9"/>
</g>
<defs>
<clipPath id="clip0">
<rect width="54" height="54.3666" fill="white" transform="translate(0.000488281 0.928955)"/>
</clipPath>
</defs>
</svg>
