<svg width="96" height="106" viewBox="0 0 96 106" fill="none" xmlns="http://www.w3.org/2000/svg">
<g clip-path="url(#clip0)">
<path d="M47.9961 86.853H93.1836C94.7368 86.853 95.9961 88.237 95.9961 89.944V102.359C95.9961 104.066 94.7368 105.45 93.1836 105.45H47.9961C46.4428 105.45 45.1836 104.066 45.1836 102.359V89.944C45.1836 88.237 46.4427 86.853 47.9961 86.853Z" fill="white"/>
<path d="M2.47413 79.8616L32.4544 46.9131L44.4199 60.0633L14.4398 93.0118C12.7904 94.8246 10.6236 95.731 8.45707 95.731C6.29051 95.731 4.12376 94.8248 2.47432 93.0118C-0.824742 89.3863 -0.824742 83.4871 2.47413 79.8616V79.8616Z" fill="white"/>
<path d="M32.4148 38.1362L52.3655 16.2103L72.3493 38.1726L52.3986 60.0986L32.4148 38.1362Z" fill="white"/>
<path d="M82.3221 40.3379L86.3327 44.7456C87.4311 45.9528 87.4311 47.9097 86.3327 49.1169L62.3683 75.4539C61.8191 76.0574 61.0993 76.3593 60.3797 76.3593C59.66 76.3593 58.94 76.0577 58.391 75.4539L54.3804 71.0462C53.282 69.8391 53.282 67.8821 54.3804 66.6749L78.3446 40.3381C79.443 39.1308 81.2237 39.1308 82.3221 40.3379Z" fill="white"/>
<path d="M26.4386 35.9675C25.3402 37.1746 23.5595 37.1746 22.4611 35.9675L18.4505 31.5598C17.3521 30.3527 17.3521 28.3957 18.4505 27.1886L42.4147 0.851553C43.5127 -0.355363 45.2936 -0.355569 46.3921 0.851553L50.4027 5.25926C51.5011 6.46638 51.5011 8.42337 50.4027 9.63049L26.4386 35.9675Z" fill="white"/>
</g>
<defs>
<clipPath id="clip0">
<rect width="96" height="105.505" fill="white" transform="translate(0 0.495117)"/>
</clipPath>
</defs>
</svg>
